<svg xmlns="http://www.w3.org/2000/svg" fill="none" viewBox="0 0 144 144" id="Figma--Streamline-Svg-Logos" height="144" width="144">
  <desc>
    Figma Streamline Icon: https://streamlinehq.com
  </desc>
  <path fill="#0acf83" d="M48.49979999999999 142.50015000000002c12.972 0 23.4999 -10.52805 23.4999 -23.50005V95.50005H48.49979999999999c-12.972 0 -23.50005 10.52805 -23.50005 23.50005s10.52805 23.50005 23.50005 23.50005Z" stroke-width="1.5"></path>
  <path fill="#a259ff" d="M24.99975 71.99985c0 -12.972 10.52805 -23.4999 23.50005 -23.4999h23.4999v46.99995H48.49979999999999c-12.972 0 -23.50005 -10.52805 -23.50005 -23.50005Z" stroke-width="1.5"></path>
  <path fill="#f24e1e" d="M24.99975 25.000049999999998C24.99975 12.028005 35.5278 1.5 48.49979999999999 1.5h23.4999v46.99995H48.49979999999999c-12.972 0 -23.50005 -10.5279 -23.50005 -23.4999Z" stroke-width="1.5"></path>
  <path fill="#ff7262" d="M71.99924999999999 1.5h23.50005c12.972 0 23.4999 10.528005 23.4999 23.50005 0 12.972 -10.5279 23.4999 -23.4999 23.4999H71.99924999999999V1.5Z" stroke-width="1.5"></path>
  <path fill="#1abcfe" d="M118.9992 71.99985c0 12.972 -10.5279 23.50005 -23.4999 23.50005s-23.50005 -10.52805 -23.50005 -23.50005 10.52805 -23.4999 23.50005 -23.4999 23.4999 10.5279 23.4999 23.4999Z" stroke-width="1.5"></path>
</svg>