<?xml version="1.0" encoding="iso-8859-1"?>
<!-- Uploaded to: SVG Repo, www.svgrepo.com, Generator: SVG Repo Mixer Tools -->
<svg version="1.1" id="Layer_1" xmlns="http://www.w3.org/2000/svg" xmlns:xlink="http://www.w3.org/1999/xlink" 
	 viewBox="0 0 511.997 511.997" xml:space="preserve">
<rect x="232.259" y="297.537" style="fill:#B4D8F1;" width="40.211" height="194.355"/>
<rect x="171.942" y="471.786" style="fill:#98C8ED;" width="160.845" height="40.211"/>
<polyline style="fill:#B4D8F1;" points="386.403,109.887 118.329,109.887 252.366,337.751 386.404,109.887 386.403,109.887 "/>
<polygon style="fill:#98C8ED;" points="386.404,109.887 252.366,109.887 252.366,337.751 "/>
<polygon style="fill:#F2F2F4;" points="354.865,163.502 149.866,163.502 252.366,337.751 "/>
<polygon style="fill:#DFDFE1;" points="252.366,163.502 252.366,337.751 354.865,163.502 "/>
<polygon style="fill:#CFCDD2;" points="271.744,145.742 231.696,212.489 266.176,233.177 318.637,145.742 "/>
<polygon style="fill:#DFDFE1;" points="354.827,85.425 393.669,20.689 359.189,0 307.934,85.425 "/>
<path style="fill:#92DA62;" d="M332.789,42.868c-22.209,0-40.211,18.003-40.211,40.211c0,11.202,4.584,21.329,11.974,28.621
	c-3.783-1.178-7.804-1.814-11.974-1.814c-22.209,0-40.211,18.003-40.211,40.211s18.003,40.211,40.211,40.211
	s40.211-18.003,40.211-40.211c0-11.202-4.584-21.329-11.974-28.621c3.783,1.178,7.804,1.814,11.974,1.814
	c22.209,0,40.211-18.003,40.211-40.211S354.996,42.868,332.789,42.868z"/>
</svg>