<svg xmlns="http://www.w3.org/2000/svg" fill="none" viewBox="0 0 144 144" id="Graphql--Streamline-Svg-Logos" height="144" width="144">
  <desc>
    Graphql Streamline Icon: https://streamlinehq.com
  </desc>
  <path fill="#e535ab" fill-rule="evenodd" d="m84.04679999999999 17.6583 28.992749999999997 16.73955c0.81645 -0.86475 1.77 -1.62825 2.8518 -2.2565999999999997 6.01305 -3.4566 13.682400000000001 -1.4043 17.174999999999997 4.60875 3.4566 6.01305 1.40415 13.682400000000001 -4.6089 17.17485 -1.0734 0.61725 -2.20095 1.0587 -3.3484499999999997 1.3335v33.492c1.1350500000000001 0.27540000000000003 2.2503 0.714 3.31245 1.3248 6.04905 3.4925999999999995 8.1015 11.1618 4.6089 17.17485 -3.4566 6.01305 -11.161950000000001 8.06535 -17.174999999999997 4.60875 -1.1971500000000002 -0.6881999999999999 -2.23725 -1.5447000000000002 -3.1081499999999997 -2.52285L83.93115 125.97330000000001c0.41205 1.2447 0.63495 2.57625 0.63495 3.9606000000000003 0 6.9132 -5.61705 12.566099999999999 -12.56625 12.566099999999999 -6.94905 0 -12.566099999999999 -5.6169 -12.566099999999999 -12.566099999999999 0 -1.23525 0.17745 -2.42835 0.50835 -3.5554499999999996L30.957 109.64340000000001c-0.8076 0.8478000000000001 -1.74795 1.5970499999999999 -2.8125 2.21535 -6.04905 3.4566 -13.718385000000001 1.4043 -17.174970000000002 -4.60875 -3.4565850000000005 -6.01305 -1.40424 -13.68225 4.60872 -17.17485 1.0632 -0.61125 2.17815 -1.05015 3.3126 -1.3254000000000001V55.25835000000001c-1.1475 -0.2748 -2.27505 -0.7162499999999999 -3.3486000000000002 -1.3335C9.52929 50.4684 7.476929999999999 42.76305 10.93353 36.75c3.4565850000000005 -6.01305 11.16192 -8.06535 17.174970000000002 -4.60875 1.0757999999999999 0.6249 2.0250000000000004 1.3836 2.83845 2.2425L59.947500000000005 17.6397c-0.33435 -1.13235 -0.51375 -2.3316 -0.51375 -3.573555C59.43375 7.116960000000001 65.0508 1.5 71.99985 1.5c6.949199999999999 0 12.56625 5.61696 12.56625 12.566145 0 1.2487050000000002 -0.18134999999999998 2.454405 -0.5193 3.592155Zm-3.0206999999999997 5.1576L110.088 39.5952c-0.89835 3.1551 -0.56865 6.653549999999999 1.1945999999999999 9.7209 1.7691 3.0774 4.6509 5.1174 7.849349999999999 5.9124v33.534000000000006c-0.16305 0.04005 -0.3252 0.08325 -0.48644999999999994 0.12974999999999998L80.68860000000001 23.151c0.1146 -0.10965 0.22710000000000002 -0.2214 0.3375 -0.33509999999999995Zm-17.707050000000002 0.34275L25.3629 88.89869999999999c-0.1641 -0.047700000000000006 -0.3291 -0.09195 -0.495 -0.1329V55.228500000000004c3.1983 -0.795 6.0802499999999995 -2.835 7.849349999999999 -5.9124 1.7667 -3.0735 2.0943 -6.5796 1.1893500000000001 -9.739650000000001l29.053649999999998 -16.77465c0.11715 0.12135 0.23685 0.2403 0.3588 0.35685Zm12.192 2.97825 37.9476 65.7252c-0.8493 0.8096999999999999 -1.5977999999999999 1.7532 -2.2120499999999996 2.8218 -0.61065 1.0623 -1.0493999999999999 2.1774 -1.32465 3.31245H34.07865c-0.27525 -1.13445 -0.7143 -2.2494 -1.3254000000000001 -3.31245 -0.61665 -1.06185 -1.36365 -2.0000999999999998 -2.2087499999999998 -2.80635l37.95495 -65.73765c1.1107500000000001 0.32055 2.28525 0.49244999999999994 3.5004 0.49244999999999994 1.2191999999999998 0 2.39715 -0.17295 3.5112000000000005 -0.49544999999999995Zm5.7819 95.33115 28.873199999999997 -16.6704c-0.08655 -0.2721 -0.1641 -0.5468999999999999 -0.23205 -0.8242499999999999h-75.8715c-0.04035 0.1629 -0.0837 0.32505 -0.1305 0.48629999999999995l29.01495 16.75215c2.2845 -2.3709 5.4939 -3.8442000000000003 9.0528 -3.8442000000000003 3.6854999999999998 0 6.9963 1.5799499999999997 9.2931 4.1004000000000005Z" clip-rule="evenodd" stroke-width="1.5"></path>
</svg>