<svg xmlns="http://www.w3.org/2000/svg" fill="none" viewBox="0 0 144 144" id="Influxdb-Icon--Streamline-Svg-Logos" height="144" width="144">
  <desc>
    Influxdb Icon Streamline Icon: https://streamlinehq.com
  </desc>
  <path fill="#d40871" d="m33.972449999999995 84.67994999999999 0.25275000000000003 0.0633 59.361599999999996 18.16905c0.4971 0.14250000000000002 0.96135 0.38175000000000003 1.3659 0.7038 0.4044 0.3222 0.74145 0.72105 0.9915 1.1736 0.2502 0.45255 0.40845 0.9501 0.4659 1.464 0.045899999999999996 0.41100000000000003 0.02655 0.8261999999999999 -0.0567 1.23015l-0.07455 0.30045 -9.94725 31.843049999999998c-0.34995 0.9699 -1.0334999999999999 1.7852999999999999 -1.9287 2.2977 -0.81375 0.46575 -1.7541 0.6555 -2.68035 0.54375l-0.27735 -0.0426 -59.36175 -18.3435c-0.99165 -0.30195 -1.8237 -0.98325 -2.3154000000000003 -1.89585 -0.44699999999999995 -0.8295000000000001 -0.57945 -1.7889000000000002 -0.37935 -2.70345l0.07005 -0.2727L29.3388 87.435c0.29385 -1.00275 0.97275 -1.84875 1.8881999999999999 -2.35305 0.8391 -0.46229999999999993 1.8147 -0.603 2.74545 -0.402Zm100.21215 14.539950000000001 -0.13455 0.1395L94.40775 136.0605c-1.45905 1.45875 -2.2119 0.9768 -1.74675 -0.92235l0.05055 -0.19455 8.265 -26.59395c0.3711 -1.09935 1.01325 -2.0877 1.8672 -2.8734 0.75915 -0.69825 1.6639499999999998 -1.21665 2.6469 -1.5187499999999998l0.37215 -0.10305 27.244799999999998 -6.19095c1.9307999999999998 -0.6939 2.38245 0.07905 1.2006000000000001 1.42035l-0.1236 0.13605ZM4.484685000000001 57.8172l0.12657 0.1437L23.5908 78.44475c0.74505 0.8992500000000001 1.26825 1.9607999999999999 1.5278999999999998 3.09915 0.23055 1.01205 0.2472 2.0595 0.0501 3.07575l-0.08385 0.37935 -8.26485 26.594099999999997c-0.50745 1.9905 -1.42995 2.0568 -1.831395 0.19905l-0.03963 -0.19905 -12.03387 -52.69005c-0.5861999999999999 -1.99275 0.31515000000000004 -2.4604500000000002 1.56948 -1.08585ZM125.51174999999999 23.92905c0.8073 0.48329999999999995 1.4086500000000002 1.242 1.6965 2.1318l0.07065 0.2457 13.9047 60.30765c0.14715 0.49275 0.18960000000000002 1.0104 0.1248 1.52025 -0.06495 0.5098499999999999 -0.23445 1.0008 -0.49875 1.44135 -0.2643 0.4407 -0.6183000000000001 0.82125 -1.03845 1.1178 -0.33615 0.2373 -0.7081500000000001 0.41625 -1.1014499999999998 0.5307l-0.29864999999999997 0.07350000000000001 -32.69655 7.49655c-0.996 0.2484 -2.0499 0.09195 -2.93055 -0.43545 -0.8073 -0.48329999999999995 -1.4086500000000002 -1.242 -1.69665 -2.1318l-0.07065 -0.2457 -13.8645 -60.30765c-0.24914999999999998 -0.99045 -0.09584999999999999 -2.03925 0.4263 -2.9169 0.47850000000000004 -0.8046 1.2315 -1.4053499999999999 2.1157500000000002 -1.6954500000000001l0.24434999999999998 -0.07125000000000001 32.6826 -7.49655c0.9958500000000001 -0.2484 2.0499 -0.09195 2.93055 0.43545Zm-42.61905 14.100900000000001 0.0603 0.20084999999999997 13.1511 56.929649999999995c0.53415 2.0709 -0.6714 3.1838999999999995 -2.6286 2.74125l-0.19815 -0.0495 -55.983000000000004 -17.2269c-1.98855 -0.54585 -2.4084 -2.133 -1.07805 -3.5863499999999995l0.14925 -0.15510000000000002 42.831900000000005 -39.7836c1.44435 -1.44405 3.0774 -0.9640500000000001 3.6952499999999997 0.9297ZM52.09530000000001 1.5011549999999998c0.5098499999999999 0.012525 1.0119 0.126135 1.4772 0.33426 0.37245 0.166485 0.7153499999999999 0.39081 1.0164 0.66408l0.21765 0.214005 22.694699999999997 24.575400000000002c0.6858 0.7404 1.05075 1.7218499999999999 1.0155 2.7304500000000003 -0.0324 0.92445 -0.39869999999999994 1.8028499999999998 -1.0263 2.47485l-0.1776 0.17804999999999999 -45.45675 42.152100000000004c-0.7503 0.6930000000000001 -1.7437500000000001 1.0619999999999998 -2.76465 1.02675 -0.9357 -0.0324 -1.8250499999999998 -0.402 -2.5065 -1.03575l-0.18059999999999998 -0.1794L3.66927 50.047200000000004c-0.679155 -0.7435499999999999 -1.039785 -1.7238 -1.004565 -2.73015 0.032295000000000004 -0.9225 0.394875 -1.7997 1.0169700000000002 -2.4744l0.17605500000000002 -0.17895L49.32795 2.57892c0.36705 -0.35391 0.8005499999999999 -0.631425 1.2756 -0.816435 0.47520000000000007 -0.185025 0.9822000000000001 -0.2738445 1.4917500000000001 -0.26133Zm11.5011 1.028835 0.18825 0.049139999999999996L115.6353 18.44685c2.00385 0.5334000000000001 2.0707500000000003 1.4314500000000001 0.26115 2.0013l-0.19380000000000003 0.057749999999999996 -27.244500000000002 6.177449999999999c-1.14165 0.23414999999999997 -2.3228999999999997 0.1914 -3.44475 -0.1248 -0.99705 -0.28095 -1.9215 -0.7705500000000001 -2.7126 -1.4349l-0.29025 -0.2571L63.0309 4.44987c-1.63005 -1.62975 -1.3272 -2.387985 0.5655 -1.91988Z" stroke-width="1.5"></path>
</svg>