<svg xmlns="http://www.w3.org/2000/svg" fill="none" viewBox="0 0 144 144" id="Kafka-Icon--Streamline-Svg-Logos" height="144" width="144">
  <desc>
    Kafka Icon Streamline Icon: https://streamlinehq.com
  </desc>
  <path fill="#1a1919" d="M58.309799999999996 14.044304999999998c-1.5543 -1.56195 -3.7226999999999997 -2.5265400000000002 -6.133500000000001 -2.5265400000000002 -2.40165 0 -4.55325 0.96459 -6.08925 2.5265400000000002h-0.04425C44.492999999999995 15.598650000000001 43.528499999999994 17.76855 43.528499999999994 20.1702c0 2.41065 0.9645 4.5624 2.5143 6.10755l0.04425 0.0351c1.536 1.5543 3.6876 2.50965 6.08925 2.50965 2.4108 0 4.5792 -0.95535 6.133500000000001 -2.50965l0.0228 -0.0351c1.55745 -1.54515 2.5128 -3.6969 2.5128 -6.10755 0 -2.40165 -0.95535 -4.57155 -2.5128 -6.125895h-0.0228Zm-6.133500000000001 118.437945c2.4108 0 4.5792 -0.9813000000000001 6.133500000000001 -2.5174499999999997l0.0228 -0.04575c1.55745 -1.53285 2.5128 -3.7028999999999996 2.5128 -6.087750000000001 0 -2.41065 -0.95535 -4.57155 -2.5128 -6.133500000000001h-0.0228c-1.5543 -1.5800999999999998 -3.7226999999999997 -2.5355999999999996 -6.133500000000001 -2.5355999999999996 -2.40165 0 -4.55325 0.9555 -6.08925 2.5355999999999996h-0.04425c-1.5497999999999998 1.56195 -2.5143 3.72285 -2.5143 6.133500000000001 0 2.38485 0.9645 4.5549 2.5143 6.087750000000001l0.04425 0.04575c1.536 1.5361500000000001 3.6876 2.5174499999999997 6.08925 2.5174499999999997ZM99.31800000000001 106.269c2.1441 -0.56235 4.0854 -1.9383 5.2695 -4.01835l0.16005 -0.3033c1.0528499999999998 -1.9734000000000003 1.24485 -4.24995 0.68265 -6.2676 -0.5668500000000001 -2.1607499999999997 -1.95975 -4.0716 -4.03515 -5.267849999999999l-0.12045 -0.08085c-2.02215 -1.10775 -4.32615 -1.3485 -6.4428 -0.77715 -2.1515999999999997 0.5364 -4.0839 1.9734000000000003 -5.26185 4.03665 -1.1931 2.0436 -1.443 4.401 -0.8716499999999999 6.5709 0.5898 2.13345 1.9689 4.0626 4.03065 5.268h0.01365c2.0664 1.18695 4.407 1.4019 6.5754 0.83955ZM61.0557 63.1335c-2.27355 -2.26755 -5.4066 -3.68775 -8.8794 -3.68775 -3.4591499999999997 0 -6.58455 1.4202 -8.8536 3.68775 -2.2582500000000003 2.2599 -3.65115 5.3853 -3.65115 8.84895 0 3.4728 1.3929 6.6075 3.65115 8.8932 2.26905 2.24925 5.39445 3.6603 8.8536 3.6603 3.4728 0 6.60585 -1.41105 8.8794 -3.6603 2.2629 -2.2857000000000003 3.6557999999999997 -5.4204 3.6557999999999997 -8.8932 0 -3.46365 -1.3929 -6.589049999999999 -3.6557999999999997 -8.84895Zm-4.992 -14.74785c5.0316 0.82905 9.55905 3.2397 13.013550000000002 6.7218h0.027450000000000002c0.5485500000000001 0.55305 1.08495 1.1520000000000001 1.5802500000000002 1.7584499999999998l8.63865 -4.99815c-1.1611500000000001 -3.5094 -1.21455 -7.17885 -0.28185000000000004 -10.6167 1.2327 -4.60815 4.2195 -8.73315 8.69655 -11.32215l0.14775 -0.08835c4.4283 -2.5098000000000003 9.4632 -3.0279000000000003 14.0088 -1.7952000000000001 4.602 1.23135 8.754449999999999 4.2318 11.33895 8.70585v0.00915c2.5722 4.4464500000000005 3.09495 9.5529 1.86675 14.14275 -1.2237 4.6049999999999995 -4.22415 8.7576 -8.6967 11.3283l-1.17945 0.69795h-0.12029999999999999c-4.1373 1.9717500000000001 -8.68755 2.2765500000000003 -12.8658 1.17795 -3.4316999999999998 -0.9114 -6.58005 -2.82225 -9.0441 -5.54535l-8.625 4.9830000000000005c0.9905999999999999 2.6241000000000003 1.5406499999999999 5.455349999999999 1.5406499999999999 8.4375 0 2.973 -0.55005 5.83935 -1.5406499999999999 8.48175l8.625 4.964700000000001c2.4640500000000003 -2.7582 5.6124 -4.6339500000000005 9.0441 -5.54535 4.602 -1.2586499999999998 9.705300000000001 -0.72225 14.16555 1.8759l0.28500000000000003 0.1341v0.0183c4.3095 2.6058000000000003 7.20165 6.64245 8.4117 11.1957 1.2282 4.5624 0.70545 9.670350000000001 -1.86675 14.126100000000001l-0.15539999999999998 0.3123 -0.0183 -0.027450000000000002c-2.5845000000000002 4.29585 -6.65625 7.2063 -11.1516 8.43765 -4.61265 1.2144 -9.71445 0.6963 -14.1702 -1.86525v-0.0366c-4.47705 -2.589 -7.463850000000001 -6.72315 -8.69655 -11.32065 -0.9327000000000001 -3.4285499999999995 -0.8793000000000001 -7.099499999999999 0.28185000000000004 -10.6074l-8.63865 -4.9830000000000005c-0.49529999999999996 0.60795 -1.0316999999999998 1.17945 -1.5802500000000002 1.73265l-0.027450000000000002 0.0258c-3.4545 3.4653 -7.981949999999999 5.87595 -13.013550000000002 6.67905v9.9828c3.5856000000000003 0.7497 6.79935 2.5447499999999996 9.3183 5.0622l0.01215 0.027450000000000002c3.3753 3.357 5.464499999999999 8.0352 5.464499999999999 13.178099999999999 0 5.12625 -2.0892 9.775500000000001 -5.464499999999999 13.1508l-0.01215 0.0534C61.98375 140.4108 57.31935 142.5 52.1763 142.5c-5.115600000000001 0 -9.78615 -2.0892 -13.17525 -5.464499999999999h-0.01215v-0.0534c-3.3798000000000004 -3.3753 -5.473649999999999 -8.024550000000001 -5.473649999999999 -13.1508 0 -5.1429 2.0938499999999998 -9.8211 5.473649999999999 -13.178099999999999v-0.027450000000000002h0.01215c2.51445 -2.5174499999999997 5.73285 -4.3125 9.3093 -5.0622v-9.9828c-5.0364 -0.8030999999999999 -9.550049999999999 -3.21375 -13.000050000000002 -6.67905l-0.036449999999999996 -0.0258c-4.3125 -4.3308 -7.0081500000000005 -10.286100000000001 -7.0081500000000005 -16.89345 0 -6.589049999999999 2.6956499999999997 -12.54435 7.0081500000000005 -16.875h0.036449999999999996c3.4499999999999997 -3.4821 7.9636499999999995 -5.89275 13.000050000000002 -6.7218v-9.938400000000001c-3.5764500000000004 -0.7773 -6.794849999999999 -2.57085 -9.3093 -5.0714999999999995h-0.01215v-0.0273c-3.3798000000000004 -3.3921 -5.473649999999999 -8.035350000000001 -5.473649999999999 -13.178250000000002 0 -5.1171 2.0938499999999998 -9.804465 5.473649999999999 -13.17978l0.01215 -0.01677C42.390150000000006 3.5892 47.0607 1.5 52.1763 1.5c5.143050000000001 0 9.80745 2.0892 13.2057 5.473649999999999v0.01677h0.01215c3.3753 3.375315 5.464499999999999 8.06268 5.464499999999999 13.17978 0 5.1429 -2.0892 9.78615 -5.464499999999999 13.178250000000002l-0.01215 0.0273c-2.5189500000000002 2.5006500000000003 -5.7327 4.2942 -9.3183 5.0714999999999995v9.938400000000001ZM104.58749999999999 41.76l-0.0717 -0.10665c-1.1931 -2.0100000000000002 -3.0948 -3.34935 -5.1978 -3.93 -2.1684 -0.5715 -4.5089999999999995 -0.3291 -6.589049999999999 0.8579999999999999h0.01365c-2.0754 1.1778 -3.46365 3.1071 -4.0443 5.267849999999999 -0.57135 2.1426 -0.32145 4.50915 0.8716499999999999 6.5709l0.039599999999999996 0.05474999999999999c1.19625 2.03445 3.09795 3.39975 5.22225 3.95295 2.13495 0.5988 4.51365 0.3489 6.56325 -0.8473499999999999l0.11115 -0.05324999999999999c2.0176499999999997 -1.2054 3.36165 -3.1071 3.9240000000000004 -5.1963 0.57135 -2.1517500000000003 0.3444 -4.50915 -0.8427 -6.5709Z" stroke-width="1.5"></path>
</svg>