<svg version="1.1" id="Layer_1" xmlns="http://www.w3.org/2000/svg" xmlns:xlink="http://www.w3.org/1999/xlink" x="0px" y="0px"
	 width="100%" viewBox="0 0 500 500" enable-background="new 0 0 500 500" xml:space="preserve">
<path fill="none" opacity="1.000000" stroke="none" 
	d="
M231.000000,501.000000 
	C154.000015,501.000000 77.500038,501.000000 1.000041,501.000000 
	C1.000027,334.333405 1.000027,167.666779 1.000014,1.000131 
	C167.666565,1.000087 334.333130,1.000087 500.999756,1.000044 
	C500.999847,167.666519 500.999847,334.333038 500.999939,500.999786 
	C411.166656,501.000000 321.333344,501.000000 231.000000,501.000000 
M74.409096,216.273117 
	C73.218353,217.461655 72.027611,218.650192 70.259773,220.202087 
	C67.760063,221.798859 65.260353,223.395630 62.760654,224.992401 
	C63.048096,222.099747 62.803158,219.025497 63.716991,216.346527 
	C67.288994,205.875015 71.227409,195.528488 75.710922,185.333862 
	C82.049271,202.565842 90.693207,219.015717 92.773743,238.697815 
	C93.623520,236.664627 93.946533,235.891785 94.500885,234.565445 
	C98.506607,244.950729 102.257660,254.675766 106.008713,264.400818 
	C106.681610,259.119568 106.884941,254.113022 106.623161,249.130920 
	C106.372490,244.360092 106.537720,239.291443 104.963829,234.913162 
	C97.592163,214.406601 89.689255,194.090881 81.950256,173.716812 
	C81.512535,172.564453 80.844612,171.499527 79.704056,169.250824 
	C77.828140,174.500839 76.346466,178.647522 74.355118,183.291656 
	C70.039268,194.640808 65.705803,205.983307 61.419331,217.343552 
	C60.272766,220.382248 57.922382,224.188370 61.480068,226.366760 
	C65.432365,228.786758 68.079498,224.976639 70.504562,222.250320 
	C70.931717,221.770111 71.131630,221.087738 71.971054,220.156418 
	C72.976448,218.773224 73.981842,217.390030 75.117119,215.724976 
	C75.206734,215.614471 75.296341,215.503967 75.385963,215.393478 
	C75.341400,215.375458 75.296829,215.357452 75.252274,215.339432 
	C75.176353,215.574783 75.100426,215.810135 74.409096,216.273117 
M82.906914,215.413467 
	C82.231056,215.032837 81.555191,214.652206 80.879326,214.271591 
	C80.940346,214.857956 81.001366,215.444321 81.191505,216.691666 
	C82.536797,221.523453 78.692734,223.641342 75.856812,225.727921 
	C67.957581,231.539917 59.284767,236.372620 51.784573,242.631195 
	C46.165306,247.320221 40.589169,252.945023 37.272095,259.335724 
	C28.829487,275.601257 39.430080,293.515900 56.602249,293.463684 
	C73.423103,293.412537 89.192833,279.006439 91.132034,261.883453 
	C91.149742,261.727112 90.699516,261.517761 90.102730,261.042389 
	C89.571869,262.510315 89.317986,263.985992 88.572037,265.144928 
	C84.751396,271.080963 81.608925,277.747925 76.697594,282.613068 
	C70.527191,288.725403 62.136353,289.150208 54.340687,285.425262 
	C46.880486,281.860596 44.690468,274.931213 44.847996,267.059784 
	C45.062664,256.332977 50.615738,248.533569 58.630238,242.219131 
	C64.375748,237.692398 70.487068,233.630600 76.244293,229.117859 
	C80.390526,225.867889 83.904877,222.054352 82.906914,215.413467 
M101.818359,290.285736 
	C101.501945,290.793549 101.185532,291.301392 100.869118,291.809235 
	C102.027367,291.876221 103.185593,292.001160 104.343864,292.001648 
	C130.815643,292.012543 157.287415,292.013947 183.759171,291.995575 
	C184.875168,291.994781 185.991013,291.786102 187.194244,291.665497 
	C187.194244,285.070099 187.194244,278.740845 187.194244,272.411621 
	C184.250519,281.912018 176.530090,284.935272 168.288239,287.091583 
	C163.967468,288.222015 159.531509,289.210968 155.094116,289.537720 
	C144.223694,290.338135 133.322220,290.716766 122.431091,291.265228 
	C122.129616,289.602173 121.913490,288.967560 121.914040,288.333160 
	C121.943008,254.536346 121.807053,220.737488 122.187309,186.944443 
	C122.265121,180.029449 122.683914,172.170380 132.090881,170.243439 
	C121.673508,170.243439 111.256134,170.243439 100.838753,170.243439 
	C106.158569,171.770432 109.153519,175.177429 109.889801,180.452240 
	C110.440140,184.394928 110.930496,188.385818 110.944672,192.357025 
	C111.036736,218.162384 111.035614,243.968399 110.941849,269.773743 
	C110.928032,273.576508 110.556404,277.435333 109.817970,281.162750 
	C109.003014,285.276367 107.717316,289.384491 101.818359,290.285736 
M355.431274,186.500458 
	C355.431274,198.238098 355.431274,209.975739 355.431274,221.768234 
	C358.146088,221.768234 360.087646,221.768234 362.527222,221.768234 
	C362.527222,213.574646 362.377075,205.608978 362.638245,197.656799 
	C362.699554,195.790436 363.687988,192.985764 365.062469,192.338608 
	C367.696045,191.098602 371.369293,189.973984 373.740662,190.939484 
	C375.599487,191.696289 376.974731,195.629456 377.120178,198.232162 
	C377.553741,205.990570 377.275787,213.788757 377.275787,221.682129 
	C379.914734,221.682129 381.968262,221.682129 384.075409,221.682129 
	C384.075409,212.554764 384.353455,203.743164 383.995667,194.957458 
	C383.651489,186.506592 377.129456,182.690414 369.300049,186.012405 
	C366.947449,187.010605 364.779297,188.443512 361.954529,189.990601 
	C361.954529,182.049927 361.954529,174.791046 361.954529,167.325760 
	C359.679169,167.325760 357.794647,167.325760 355.431976,167.325760 
	C355.431976,173.575958 355.431976,179.538376 355.431274,186.500458 
M224.697723,186.723053 
	C221.853256,180.324478 219.008789,173.925888 216.164322,167.527313 
	C215.698700,167.577576 215.233093,167.627838 214.767471,167.678116 
	C206.906235,185.603973 199.045013,203.529831 191.183777,221.455673 
	C191.635269,221.848267 192.086761,222.240845 192.538254,222.633438 
	C193.918274,221.492355 196.281067,220.527771 196.522751,219.182236 
	C198.444031,208.484894 205.224228,206.024948 214.772171,207.736389 
	C215.255386,207.822998 215.767639,207.747543 216.266373,207.747543 
	C225.261108,207.747574 225.261108,207.747574 228.672058,215.984634 
	C231.539536,222.909286 232.118149,223.190613 239.763229,221.180954 
	C234.826294,209.904083 229.905624,198.664352 224.697723,186.723053 
M347.726105,287.263916 
	C347.726318,280.933411 347.707001,274.602814 347.733093,268.272430 
	C347.753143,263.411163 350.976837,259.991150 355.513855,259.945068 
	C359.656189,259.903015 361.264648,262.022827 361.432983,267.938324 
	C361.518250,270.934631 361.456757,273.935211 361.457825,276.933838 
	C361.459595,281.862244 361.458313,286.790680 361.458313,291.624939 
	C364.263062,291.624939 366.318909,291.624939 368.375488,291.624939 
	C368.375488,282.093750 368.943024,272.915131 368.210266,263.841492 
	C367.525421,255.360718 359.653656,252.116669 352.363586,256.620331 
	C350.565002,257.731445 348.897369,259.054565 347.087708,260.338287 
	C344.845093,258.468964 342.822357,256.782898 340.537231,254.878143 
	C339.261871,255.978088 338.091492,256.987488 337.257904,257.706390 
	C343.659454,268.870056 338.558105,280.777893 341.087585,291.709717 
	C347.178192,292.241699 347.178192,292.241699 347.726105,287.263916 
M463.404938,277.372559 
	C463.404816,278.370544 463.417389,279.368713 463.402435,280.366486 
	C463.325836,285.476501 459.875916,289.216217 455.284607,289.029022 
	C449.818268,288.806183 449.747742,284.757507 449.624908,280.806732 
	C449.588745,279.643494 449.611603,278.478333 449.611450,277.314056 
	C449.610687,270.220032 449.611023,263.125977 449.611023,255.931366 
	C446.882935,255.931366 444.849121,255.931366 442.742859,255.931366 
	C442.742859,265.302551 442.257416,274.285034 442.877411,283.190552 
	C443.515900,292.361725 451.779633,295.825836 459.541077,290.718353 
	C461.032501,289.736877 462.454620,288.650116 463.805511,287.685638 
	C470.966431,292.748260 470.966431,292.748260 473.556915,290.044891 
	C467.489166,279.085266 472.498749,267.045959 469.934387,255.527451 
	C467.730774,255.638046 465.691956,255.740356 463.405579,255.855103 
	C463.405579,263.122070 463.405579,269.764343 463.404938,277.372559 
M399.404907,278.332123 
	C399.392365,285.175690 396.398956,289.143372 391.322052,289.045715 
	C386.942047,288.961487 385.633911,286.648865 385.616150,278.848785 
	C385.598846,271.252960 385.612366,263.657074 385.612366,255.917618 
	C382.903992,255.917618 380.873169,255.917618 378.809387,255.917618 
	C378.809387,265.437164 378.327026,274.580475 378.950226,283.647827 
	C379.528900,292.067230 387.254089,295.513306 394.654694,291.246643 
	C396.487152,290.190186 398.157684,288.852814 399.806366,287.711273 
	C406.965942,292.701965 406.965942,292.701965 409.944214,289.676331 
	C405.171387,284.960297 406.804016,278.872406 406.633270,273.183380 
	C406.460754,267.435547 406.595276,261.678558 406.595276,255.514923 
	C403.756775,255.644287 401.718658,255.737167 399.405548,255.842590 
	C399.405548,263.425232 399.405548,270.397705 399.404907,278.332123 
M224.912262,292.014679 
	C226.036011,290.600250 227.159775,289.185791 228.283524,287.771362 
	C227.983658,287.411865 227.683792,287.052368 227.383926,286.692902 
	C225.307404,287.025696 223.240585,287.450043 221.152252,287.671295 
	C217.381714,288.070740 213.599777,288.581238 209.819824,288.605011 
	C206.711319,288.624603 205.324066,286.940338 205.472397,283.494720 
	C205.765427,276.687592 205.558533,269.858917 205.558472,263.039154 
	C205.558395,255.100327 205.558456,247.161514 205.558456,238.947968 
	C202.604645,238.947968 200.214294,238.947968 197.692093,238.947968 
	C197.692093,256.762299 197.692093,274.254028 197.692093,292.023773 
	C206.746429,292.023773 215.385208,292.023773 224.912262,292.014679 
M312.978729,189.773132 
	C312.638947,184.807281 312.249847,184.607346 306.021149,186.390610 
	C306.021149,194.142838 306.032288,201.965393 306.017212,209.787903 
	C306.007050,215.054581 302.462585,219.051895 297.858765,219.036392 
	C293.735229,219.022507 292.031128,216.571487 292.001434,210.400879 
	C291.962402,202.280197 291.991852,194.159195 291.991852,185.847992 
	C289.437958,185.847992 287.376495,185.847992 285.106812,185.847992 
	C285.106812,195.184174 284.780457,204.183655 285.201416,213.148071 
	C285.598114,221.596664 293.138153,225.499664 300.656982,221.518173 
	C302.690552,220.441299 304.499237,218.939682 306.549805,217.538269 
	C308.741760,219.337494 310.885284,221.096985 313.145996,222.952652 
	C314.471558,221.849472 315.568512,220.936584 315.528931,220.969513 
	C314.539886,216.212631 313.320831,212.488205 313.080414,208.701645 
	C312.701111,202.727325 312.979034,196.711304 312.978729,189.773132 
M246.155701,185.681503 
	C245.280762,186.391464 244.405807,187.101410 243.726227,187.652847 
	C250.330536,198.548477 245.206787,210.434235 247.614471,221.676315 
	C249.604004,221.676315 251.637009,221.676315 254.013580,221.676315 
	C254.013580,213.542160 253.990692,205.737427 254.022293,197.932907 
	C254.040833,193.351227 257.590179,189.861954 262.196655,189.952896 
	C267.227203,190.052231 267.969971,193.600555 268.038422,197.549484 
	C268.096161,200.880676 268.057983,204.213577 268.059143,207.545715 
	C268.060791,212.301514 268.059540,217.057297 268.059540,221.701645 
	C270.781006,221.701645 272.704956,221.701645 274.905823,221.701645 
	C274.905823,212.266785 275.252167,203.117798 274.799683,194.008499 
	C274.416321,186.290649 267.269684,182.527985 260.260864,185.954239 
	C257.919922,187.098572 255.857010,188.811691 253.748383,190.210815 
	C251.291077,188.507324 249.020065,186.932983 246.155701,185.681503 
M395.621399,221.064468 
	C402.558411,225.957733 407.729492,220.777496 413.234009,217.722961 
	C415.409454,219.558563 417.419830,221.254913 419.534576,223.039307 
	C420.866333,222.060318 422.039734,221.197754 422.166840,221.104324 
	C421.251495,216.256439 420.260345,212.196716 419.780487,208.077454 
	C419.416931,204.957123 419.720642,201.760757 419.700745,198.598389 
	C419.628845,187.159439 413.860809,182.516983 402.665802,185.222046 
	C399.623688,185.957092 396.811371,187.643066 393.893585,188.892624 
	C399.319763,189.720703 404.266937,189.069580 408.941467,189.918945 
	C412.953674,190.647949 413.919342,195.907562 412.283691,202.498047 
	C407.503265,203.916473 402.704498,204.837585 398.343231,206.754272 
	C392.070831,209.510895 391.013336,214.931961 395.621399,221.064468 
M257.463348,259.341919 
	C251.517319,252.694260 236.718414,253.285995 234.454880,259.684174 
	C238.951431,259.684174 243.753494,259.065857 248.305878,259.866760 
	C252.444534,260.594849 253.216568,264.884216 251.612717,272.583252 
	C247.075989,273.902527 242.481201,274.834747 238.219070,276.579590 
	C232.801849,278.797272 230.758148,283.824951 232.832336,288.237518 
	C234.879501,292.592621 240.101440,294.298828 245.273346,292.013458 
	C247.817017,290.889465 250.124374,289.230682 252.715149,287.710327 
	C254.820831,289.434601 256.963593,291.189240 259.222107,293.038666 
	C260.546539,291.944458 261.646240,291.035919 261.598907,291.075012 
	C260.605774,286.158203 259.519623,282.277618 259.093964,278.325897 
	C258.440125,272.255829 258.240265,266.136841 257.463348,259.341919 
M306.485016,276.858856 
	C301.165741,280.600555 299.678436,284.772095 302.172821,288.953522 
	C304.666443,293.133759 310.121185,294.248322 315.459320,291.505554 
	C317.619324,290.395691 319.606781,288.949890 321.713470,287.631470 
	C323.936340,289.505463 325.939423,291.194183 328.079529,292.998444 
	C329.404388,292.006104 330.551788,291.146729 330.599335,291.111115 
	C329.634888,286.021820 328.596680,281.801514 328.100739,277.518433 
	C327.720490,274.234528 328.037292,270.871338 328.021606,267.543488 
	C327.987640,260.331390 326.268463,257.206879 321.411285,255.483734 
	C315.535950,253.399353 306.351410,255.324722 303.020142,259.378754 
	C302.904144,259.519928 303.170929,259.975616 303.090363,259.693909 
	C307.972382,259.693909 312.777283,259.073334 317.330505,259.877625 
	C321.451447,260.605560 322.234100,265.002380 320.601746,272.584412 
	C316.050018,273.911041 311.600586,275.207855 306.485016,276.858856 
M336.601196,200.946152 
	C334.668640,199.657928 332.243927,198.732193 330.949127,196.974274 
	C329.775574,195.380966 328.908997,192.448425 329.627747,190.910614 
	C330.253998,189.570816 333.370239,188.595581 335.228394,188.812332 
	C338.249573,189.164795 341.141937,190.621704 344.152893,191.634048 
	C345.783051,188.176147 345.164520,186.037491 341.285065,185.500427 
	C339.147614,185.204529 337.012329,184.772339 334.865112,184.690918 
	C328.749115,184.459015 324.653229,186.818420 323.164825,191.236649 
	C321.601440,195.877365 323.601501,200.357880 328.911316,203.786606 
	C331.561890,205.498169 334.674744,206.660263 336.925262,208.768326 
	C338.515533,210.257935 340.241333,213.359421 339.675201,214.944138 
	C338.987762,216.868408 336.046509,218.984192 333.914368,219.176483 
	C330.130096,219.517822 326.220734,218.472183 321.276367,217.875610 
	C322.614960,219.322861 323.434082,221.044495 324.487030,221.201920 
	C329.007996,221.877823 333.665375,222.752899 338.143555,222.293411 
	C342.698456,221.826065 345.997681,218.660034 346.791595,213.822067 
	C347.536072,209.285141 345.001373,206.247025 341.516998,203.854980 
	C340.149902,202.916428 338.680725,202.126587 336.601196,200.946152 
M292.912903,260.366333 
	C290.179840,267.579773 287.446808,274.793213 284.209564,283.337372 
	C280.850494,274.897736 277.647247,267.831360 275.255829,260.500153 
	C273.629242,255.513626 270.911255,254.623352 266.082397,256.039429 
	C271.416412,268.632782 276.611145,280.897400 281.805908,293.162018 
	C282.229218,293.143066 282.652527,293.124115 283.075836,293.105133 
	C287.953583,280.761932 292.831299,268.418701 297.709015,256.075500 
	C297.140320,255.750046 296.571625,255.424591 296.002930,255.099136 
	C295.040131,256.614349 294.077332,258.129547 292.912903,260.366333 
M424.814789,291.080505 
	C424.866089,285.750610 424.951508,280.420807 424.961700,275.090851 
	C424.984192,263.357605 425.372314,262.843475 437.006744,259.583405 
	C437.253204,259.514343 437.399963,259.089478 437.823975,258.521484 
	C437.462677,257.216553 437.040833,255.692993 436.367676,253.261749 
	C432.021118,256.040527 428.235260,258.460846 424.359406,260.938690 
	C423.478790,257.828125 423.318237,253.983124 418.407471,256.034760 
	C418.407471,267.988281 418.407471,279.877258 418.407471,291.784180 
	C420.586487,291.784180 422.403961,291.784180 424.814789,291.080505 
M92.707306,258.200653 
	C92.769630,257.436707 92.831947,256.672791 92.894272,255.908844 
	C92.315331,255.977509 91.736389,256.046173 91.157448,256.114838 
	C91.526207,256.962250 91.894966,257.809631 92.707306,258.200653 
z"/>
<path fill="#D68E97" opacity="1.000000" stroke="none" 
	d="
M102.193939,290.236237 
	C107.717316,289.384491 109.003014,285.276367 109.817970,281.162750 
	C110.556404,277.435333 110.928032,273.576508 110.941849,269.773743 
	C111.035614,243.968399 111.036736,218.162384 110.944672,192.357025 
	C110.930496,188.385818 110.440140,184.394928 109.889801,180.452240 
	C109.153519,175.177429 106.158569,171.770432 100.838753,170.243439 
	C111.256134,170.243439 121.673508,170.243439 132.090881,170.243439 
	C122.683914,172.170380 122.265121,180.029449 122.187309,186.944443 
	C121.807053,220.737488 121.943008,254.536346 121.914040,288.333160 
	C121.913490,288.967560 122.129616,289.602173 122.431091,291.265228 
	C133.322220,290.716766 144.223694,290.338135 155.094116,289.537720 
	C159.531509,289.210968 163.967468,288.222015 168.288239,287.091583 
	C176.530090,284.935272 184.250519,281.912018 187.194244,272.411621 
	C187.194244,278.740845 187.194244,285.070099 187.194244,291.665497 
	C185.991013,291.786102 184.875168,291.994781 183.759171,291.995575 
	C157.287415,292.013947 130.815643,292.012543 104.343864,292.001648 
	C103.185593,292.001160 102.027367,291.876221 100.869118,291.809204 
	C101.185532,291.301392 101.501945,290.793549 102.193939,290.236237 
z"/>
<path fill="#B37078" opacity="1.000000" stroke="none" 
	d="
M74.864799,182.794189 
	C76.346466,178.647522 77.828140,174.500839 79.704056,169.250824 
	C80.844612,171.499527 81.512535,172.564453 81.950256,173.716812 
	C89.689255,194.090881 97.592163,214.406601 104.963829,234.913162 
	C106.537720,239.291443 106.372490,244.360092 106.623161,249.130920 
	C106.884941,254.113022 106.681610,259.119568 106.008713,264.400818 
	C102.257660,254.675766 98.506607,244.950729 94.500885,234.565445 
	C93.946533,235.891785 93.623520,236.664627 92.773743,238.697815 
	C90.693207,219.015717 82.049271,202.565842 75.365829,184.843018 
	C74.968758,183.832840 74.916779,183.313522 74.864799,182.794189 
z"/>
<path fill="#B47179" opacity="1.000000" stroke="none" 
	d="
M82.974243,216.073761 
	C83.904877,222.054352 80.390526,225.867889 76.244293,229.117859 
	C70.487068,233.630600 64.375748,237.692398 58.630238,242.219131 
	C50.615738,248.533569 45.062664,256.332977 44.847996,267.059784 
	C44.690468,274.931213 46.880486,281.860596 54.340687,285.425262 
	C62.136353,289.150208 70.527191,288.725403 76.697594,282.613068 
	C81.608925,277.747925 84.751396,271.080963 88.572037,265.144928 
	C89.317986,263.985992 89.571869,262.510315 90.102730,261.042389 
	C90.699516,261.517761 91.149742,261.727112 91.132034,261.883453 
	C89.192833,279.006439 73.423103,293.412537 56.602249,293.463684 
	C39.430080,293.515900 28.829487,275.601257 37.272095,259.335724 
	C40.589169,252.945023 46.165306,247.320221 51.784573,242.631195 
	C59.284767,236.372620 67.957581,231.539917 75.856812,225.727921 
	C78.692734,223.641342 82.536797,221.523453 81.446045,216.332733 
	C82.125145,216.007126 82.549690,216.040451 82.974243,216.073761 
z"/>
<path fill="#B26E77" opacity="1.000000" stroke="none" 
	d="
M355.431641,186.000610 
	C355.431976,179.538376 355.431976,173.575958 355.431976,167.325760 
	C357.794647,167.325760 359.679169,167.325760 361.954529,167.325760 
	C361.954529,174.791046 361.954529,182.049927 361.954529,189.990601 
	C364.779297,188.443512 366.947449,187.010605 369.300049,186.012405 
	C377.129456,182.690414 383.651489,186.506592 383.995667,194.957458 
	C384.353455,203.743164 384.075409,212.554764 384.075409,221.682129 
	C381.968262,221.682129 379.914734,221.682129 377.275787,221.682129 
	C377.275787,213.788757 377.553741,205.990570 377.120178,198.232162 
	C376.974731,195.629456 375.599487,191.696289 373.740662,190.939484 
	C371.369293,189.973984 367.696045,191.098602 365.062469,192.338608 
	C363.687988,192.985764 362.699554,195.790436 362.638245,197.656799 
	C362.377075,205.608978 362.527222,213.574646 362.527222,221.768234 
	C360.087646,221.768234 358.146088,221.768234 355.431274,221.768234 
	C355.431274,209.975739 355.431274,198.238098 355.431641,186.000610 
z"/>
<path fill="#B5747C" opacity="1.000000" stroke="none" 
	d="
M224.841339,187.073822 
	C229.905624,198.664352 234.826294,209.904083 239.763229,221.180954 
	C232.118149,223.190613 231.539536,222.909286 228.672058,215.984634 
	C225.261108,207.747574 225.261108,207.747574 216.266373,207.747543 
	C215.767639,207.747543 215.255386,207.822998 214.772171,207.736389 
	C205.224228,206.024948 198.444031,208.484894 196.522751,219.182236 
	C196.281067,220.527771 193.918274,221.492355 192.538254,222.633438 
	C192.086761,222.240845 191.635269,221.848267 191.183777,221.455673 
	C199.045013,203.529831 206.906235,185.603973 214.767471,167.678116 
	C215.233093,167.627838 215.698700,167.577576 216.164322,167.527313 
	C219.008789,173.925888 221.853256,180.324478 224.841339,187.073822 
M210.906967,184.523041 
	C208.273773,190.908051 205.640579,197.293060 202.896835,203.946167 
	C209.981308,203.946167 216.386459,203.946167 223.641861,203.946167 
	C220.176407,195.460403 216.944763,187.547134 213.411560,178.895493 
	C212.371429,181.131454 211.746979,182.473801 210.906967,184.523041 
z"/>
<path fill="#B5737B" opacity="1.000000" stroke="none" 
	d="
M347.725647,287.729034 
	C347.178192,292.241699 347.178192,292.241699 341.087585,291.709717 
	C338.558105,280.777893 343.659454,268.870056 337.257904,257.706390 
	C338.091492,256.987488 339.261871,255.978088 340.537231,254.878143 
	C342.822357,256.782898 344.845093,258.468964 347.087708,260.338287 
	C348.897369,259.054565 350.565002,257.731445 352.363586,256.620331 
	C359.653656,252.116669 367.525421,255.360718 368.210266,263.841492 
	C368.943024,272.915131 368.375488,282.093750 368.375488,291.624939 
	C366.318909,291.624939 364.263062,291.624939 361.458313,291.624939 
	C361.458313,286.790680 361.459595,281.862244 361.457825,276.933838 
	C361.456757,273.935211 361.518250,270.934631 361.432983,267.938324 
	C361.264648,262.022827 359.656189,259.903015 355.513855,259.945068 
	C350.976837,259.991150 347.753143,263.411163 347.733093,268.272430 
	C347.707001,274.602814 347.726318,280.933411 347.725647,287.729034 
z"/>
<path fill="#B16D75" opacity="1.000000" stroke="none" 
	d="
M463.405273,276.889587 
	C463.405579,269.764343 463.405579,263.122070 463.405579,255.855103 
	C465.691956,255.740356 467.730774,255.638046 469.934387,255.527451 
	C472.498749,267.045959 467.489166,279.085266 473.556915,290.044891 
	C470.966431,292.748260 470.966431,292.748260 463.805511,287.685638 
	C462.454620,288.650116 461.032501,289.736877 459.541077,290.718353 
	C451.779633,295.825836 443.515900,292.361725 442.877411,283.190552 
	C442.257416,274.285034 442.742859,265.302551 442.742859,255.931366 
	C444.849121,255.931366 446.882935,255.931366 449.611023,255.931366 
	C449.611023,263.125977 449.610687,270.220032 449.611450,277.314056 
	C449.611603,278.478333 449.588745,279.643494 449.624908,280.806732 
	C449.747742,284.757507 449.818268,288.806183 455.284607,289.029022 
	C459.875916,289.216217 463.325836,285.476501 463.402435,280.366486 
	C463.417389,279.368713 463.404816,278.370544 463.405273,276.889587 
z"/>
<path fill="#B16D75" opacity="1.000000" stroke="none" 
	d="
M399.405212,277.851135 
	C399.405548,270.397705 399.405548,263.425232 399.405548,255.842590 
	C401.718658,255.737167 403.756775,255.644287 406.595276,255.514923 
	C406.595276,261.678558 406.460754,267.435547 406.633270,273.183380 
	C406.804016,278.872406 405.171387,284.960297 409.944214,289.676331 
	C406.965942,292.701965 406.965942,292.701965 399.806366,287.711273 
	C398.157684,288.852814 396.487152,290.190186 394.654694,291.246643 
	C387.254089,295.513306 379.528900,292.067230 378.950226,283.647827 
	C378.327026,274.580475 378.809387,265.437164 378.809387,255.917618 
	C380.873169,255.917618 382.903992,255.917618 385.612366,255.917618 
	C385.612366,263.657074 385.598846,271.252960 385.616150,278.848785 
	C385.633911,286.648865 386.942047,288.961487 391.322052,289.045715 
	C396.398956,289.143372 399.392365,285.175690 399.405212,277.851135 
z"/>
<path fill="#B5737B" opacity="1.000000" stroke="none" 
	d="
M224.468124,292.019226 
	C215.385208,292.023773 206.746429,292.023773 197.692093,292.023773 
	C197.692093,274.254028 197.692093,256.762299 197.692093,238.947968 
	C200.214294,238.947968 202.604645,238.947968 205.558456,238.947968 
	C205.558456,247.161514 205.558395,255.100327 205.558472,263.039154 
	C205.558533,269.858917 205.765427,276.687592 205.472397,283.494720 
	C205.324066,286.940338 206.711319,288.624603 209.819824,288.605011 
	C213.599777,288.581238 217.381714,288.070740 221.152252,287.671295 
	C223.240585,287.450043 225.307404,287.025696 227.383926,286.692902 
	C227.683792,287.052368 227.983658,287.411865 228.283524,287.771362 
	C227.159775,289.185791 226.036011,290.600250 224.468124,292.019226 
z"/>
<path fill="#B26F77" opacity="1.000000" stroke="none" 
	d="
M312.978760,190.243027 
	C312.979034,196.711304 312.701111,202.727325 313.080414,208.701645 
	C313.320831,212.488205 314.539886,216.212631 315.528931,220.969513 
	C315.568512,220.936584 314.471558,221.849472 313.145996,222.952652 
	C310.885284,221.096985 308.741760,219.337494 306.549805,217.538269 
	C304.499237,218.939682 302.690552,220.441299 300.656982,221.518173 
	C293.138153,225.499664 285.598114,221.596664 285.201416,213.148071 
	C284.780457,204.183655 285.106812,195.184174 285.106812,185.847992 
	C287.376495,185.847992 289.437958,185.847992 291.991852,185.847992 
	C291.991852,194.159195 291.962402,202.280197 292.001434,210.400879 
	C292.031128,216.571487 293.735229,219.022507 297.858765,219.036392 
	C302.462585,219.051895 306.007050,215.054581 306.017212,209.787903 
	C306.032288,201.965393 306.021149,194.142838 306.021149,186.390610 
	C312.249847,184.607346 312.638947,184.807281 312.978760,190.243027 
z"/>
<path fill="#B26E77" opacity="1.000000" stroke="none" 
	d="
M246.452377,185.520081 
	C249.020065,186.932983 251.291077,188.507324 253.748383,190.210815 
	C255.857010,188.811691 257.919922,187.098572 260.260864,185.954239 
	C267.269684,182.527985 274.416321,186.290649 274.799683,194.008499 
	C275.252167,203.117798 274.905823,212.266785 274.905823,221.701645 
	C272.704956,221.701645 270.781006,221.701645 268.059540,221.701645 
	C268.059540,217.057297 268.060791,212.301514 268.059143,207.545715 
	C268.057983,204.213577 268.096161,200.880676 268.038422,197.549484 
	C267.969971,193.600555 267.227203,190.052231 262.196655,189.952896 
	C257.590179,189.861954 254.040833,193.351227 254.022293,197.932907 
	C253.990692,205.737427 254.013580,213.542160 254.013580,221.676315 
	C251.637009,221.676315 249.604004,221.676315 247.614471,221.676315 
	C245.206787,210.434235 250.330536,198.548477 243.726227,187.652847 
	C244.405807,187.101410 245.280762,186.391464 246.452377,185.520081 
z"/>
<path fill="#B4727A" opacity="1.000000" stroke="none" 
	d="
M395.333954,220.817047 
	C391.013336,214.931961 392.070831,209.510895 398.343231,206.754272 
	C402.704498,204.837585 407.503265,203.916473 412.283691,202.498047 
	C413.919342,195.907562 412.953674,190.647949 408.941467,189.918945 
	C404.266937,189.069580 399.319763,189.720703 393.893585,188.892624 
	C396.811371,187.643066 399.623688,185.957092 402.665802,185.222046 
	C413.860809,182.516983 419.628845,187.159439 419.700745,198.598389 
	C419.720642,201.760757 419.416931,204.957123 419.780487,208.077454 
	C420.260345,212.196716 421.251495,216.256439 422.166840,221.104324 
	C422.039734,221.197754 420.866333,222.060318 419.534576,223.039307 
	C417.419830,221.254913 415.409454,219.558563 413.234009,217.722961 
	C407.729492,220.777496 402.558411,225.957733 395.333954,220.817047 
M406.266724,206.525314 
	C404.944489,207.207962 403.525696,207.753128 402.319000,208.600357 
	C399.304413,210.716904 399.197601,213.512558 400.975159,216.441620 
	C402.836517,219.508682 405.199005,219.283798 408.198669,217.758911 
	C413.739288,214.942322 413.410278,210.436386 412.534393,205.288971 
	C410.553284,205.625000 408.772125,205.927109 406.266724,206.525314 
z"/>
<path fill="#B5737B" opacity="1.000000" stroke="none" 
	d="
M257.655579,259.690247 
	C258.240265,266.136841 258.440125,272.255829 259.093964,278.325897 
	C259.519623,282.277618 260.605774,286.158203 261.598907,291.075012 
	C261.646240,291.035919 260.546539,291.944458 259.222107,293.038666 
	C256.963593,291.189240 254.820831,289.434601 252.715149,287.710327 
	C250.124374,289.230682 247.817017,290.889465 245.273346,292.013458 
	C240.101440,294.298828 234.879501,292.592621 232.832336,288.237518 
	C230.758148,283.824951 232.801849,278.797272 238.219070,276.579590 
	C242.481201,274.834747 247.075989,273.902527 251.612717,272.583252 
	C253.216568,264.884216 252.444534,260.594849 248.305878,259.866760 
	C243.753494,259.065857 238.951431,259.684174 234.454880,259.684174 
	C236.718414,253.285995 251.517319,252.694260 257.655579,259.690247 
M240.399658,279.932556 
	C238.156387,282.985992 239.418564,285.654602 241.655136,287.837524 
	C244.428467,290.544342 246.796783,288.087311 249.128540,286.714142 
	C254.037476,283.823334 251.995758,279.528503 251.740509,274.331268 
	C247.599869,276.267578 244.258347,277.830200 240.399658,279.932556 
z"/>
<path fill="#B5737B" opacity="1.000000" stroke="none" 
	d="
M306.818085,276.681763 
	C311.600586,275.207855 316.050018,273.911041 320.601746,272.584412 
	C322.234100,265.002380 321.451447,260.605560 317.330505,259.877625 
	C312.777283,259.073334 307.972382,259.693909 303.090363,259.693909 
	C303.170929,259.975616 302.904144,259.519928 303.020142,259.378754 
	C306.351410,255.324722 315.535950,253.399353 321.411285,255.483734 
	C326.268463,257.206879 327.987640,260.331390 328.021606,267.543488 
	C328.037292,270.871338 327.720490,274.234528 328.100739,277.518433 
	C328.596680,281.801514 329.634888,286.021820 330.599335,291.111115 
	C330.551788,291.146729 329.404388,292.006104 328.079529,292.998444 
	C325.939423,291.194183 323.936340,289.505463 321.713470,287.631470 
	C319.606781,288.949890 317.619324,290.395691 315.459320,291.505554 
	C310.121185,294.248322 304.666443,293.133759 302.172821,288.953522 
	C299.678436,284.772095 301.165741,280.600555 306.818085,276.681763 
M315.571320,288.233124 
	C321.887543,284.454224 322.204712,283.662537 320.461578,274.823212 
	C317.166443,276.118591 313.638702,276.867554 310.975586,278.804962 
	C309.509674,279.871399 308.726837,283.047272 309.017883,285.073639 
	C309.417389,287.854645 311.500610,289.801666 315.571320,288.233124 
z"/>
<path fill="#B47179" opacity="1.000000" stroke="none" 
	d="
M336.929626,201.107590 
	C338.680725,202.126587 340.149902,202.916428 341.516998,203.854980 
	C345.001373,206.247025 347.536072,209.285141 346.791595,213.822067 
	C345.997681,218.660034 342.698456,221.826065 338.143555,222.293411 
	C333.665375,222.752899 329.007996,221.877823 324.487030,221.201920 
	C323.434082,221.044495 322.614960,219.322861 321.276367,217.875610 
	C326.220734,218.472183 330.130096,219.517822 333.914368,219.176483 
	C336.046509,218.984192 338.987762,216.868408 339.675201,214.944138 
	C340.241333,213.359421 338.515533,210.257935 336.925262,208.768326 
	C334.674744,206.660263 331.561890,205.498169 328.911316,203.786606 
	C323.601501,200.357880 321.601440,195.877365 323.164825,191.236649 
	C324.653229,186.818420 328.749115,184.459015 334.865112,184.690918 
	C337.012329,184.772339 339.147614,185.204529 341.285065,185.500427 
	C345.164520,186.037491 345.783051,188.176147 344.152893,191.634048 
	C341.141937,190.621704 338.249573,189.164795 335.228394,188.812332 
	C333.370239,188.595581 330.253998,189.570816 329.627747,190.910614 
	C328.908997,192.448425 329.775574,195.380966 330.949127,196.974274 
	C332.243927,198.732193 334.668640,199.657928 336.929626,201.107590 
z"/>
<path fill="#B5737B" opacity="1.000000" stroke="none" 
	d="
M293.013733,260.005554 
	C294.077332,258.129547 295.040131,256.614349 296.002930,255.099136 
	C296.571625,255.424591 297.140320,255.750046 297.709015,256.075500 
	C292.831299,268.418701 287.953583,280.761932 283.075836,293.105133 
	C282.652527,293.124115 282.229218,293.143066 281.805908,293.162018 
	C276.611145,280.897400 271.416412,268.632782 266.082397,256.039429 
	C270.911255,254.623352 273.629242,255.513626 275.255829,260.500153 
	C277.647247,267.831360 280.850494,274.897736 284.209564,283.337372 
	C287.446808,274.793213 290.179840,267.579773 293.013733,260.005554 
z"/>
<path fill="#B37078" opacity="1.000000" stroke="none" 
	d="
M424.518127,291.432343 
	C422.403961,291.784180 420.586487,291.784180 418.407471,291.784180 
	C418.407471,279.877258 418.407471,267.988281 418.407471,256.034760 
	C423.318237,253.983124 423.478790,257.828125 424.359406,260.938690 
	C428.235260,258.460846 432.021118,256.040527 436.367676,253.261749 
	C437.040833,255.692993 437.462677,257.216553 437.823975,258.521484 
	C437.399963,259.089478 437.253204,259.514343 437.006744,259.583405 
	C425.372314,262.843475 424.984192,263.357605 424.961700,275.090851 
	C424.951508,280.420807 424.866089,285.750610 424.518127,291.432343 
z"/>
<path fill="#C38D94" opacity="1.000000" stroke="none" 
	d="
M74.609955,183.042923 
	C74.916779,183.313522 74.968758,183.832840 75.025185,184.743835 
	C71.227409,195.528488 67.288994,205.875015 63.716991,216.346527 
	C62.803158,219.025497 63.048096,222.099747 62.760651,224.992401 
	C65.260353,223.395630 67.760063,221.798859 70.698013,220.185883 
	C71.136246,220.169678 71.436485,220.498734 71.436485,220.498734 
	C71.131630,221.087738 70.931717,221.770111 70.504562,222.250320 
	C68.079498,224.976639 65.432365,228.786758 61.480068,226.366760 
	C57.922382,224.188370 60.272766,220.382248 61.419331,217.343552 
	C65.705803,205.983307 70.039268,194.640808 74.609955,183.042923 
z"/>
<path fill="#C38D94" opacity="1.000000" stroke="none" 
	d="
M74.987244,216.006851 
	C73.981842,217.390030 72.976448,218.773224 71.703766,220.327576 
	C71.436485,220.498734 71.136246,220.169678 70.986557,220.004196 
	C72.027611,218.650192 73.218353,217.461655 74.710541,216.145370 
	C75.011993,216.017624 74.987244,216.006851 74.987244,216.006851 
z"/>
<path fill="none" opacity="1.000000" stroke="none" 
	d="
M92.485519,258.428833 
	C91.894966,257.809631 91.526207,256.962250 91.157448,256.114838 
	C91.736389,256.046173 92.315331,255.977509 92.894272,255.908844 
	C92.831947,256.672791 92.769630,257.436707 92.485519,258.428833 
z"/>
<path fill="none" opacity="1.000000" stroke="none" 
	d="
M82.940582,215.743622 
	C82.549690,216.040451 82.125145,216.007126 81.381485,216.002243 
	C81.001366,215.444321 80.940346,214.857956 80.879326,214.271591 
	C81.555191,214.652206 82.231056,215.032837 82.940582,215.743622 
z"/>
<path fill="#C38D94" opacity="1.000000" stroke="none" 
	d="
M75.018250,216.031555 
	C75.100426,215.810135 75.176353,215.574783 75.252274,215.339432 
	C75.296829,215.357452 75.341400,215.375458 75.385956,215.393478 
	C75.296341,215.503967 75.206734,215.614471 75.052185,215.865906 
	C74.987244,216.006851 75.011993,216.017624 75.018250,216.031555 
z"/>
<path fill="none" opacity="1.000000" stroke="none" 
	d="
M211.014755,184.169586 
	C211.746979,182.473801 212.371429,181.131454 213.411560,178.895493 
	C216.944763,187.547134 220.176407,195.460403 223.641861,203.946167 
	C216.386459,203.946167 209.981308,203.946167 202.896835,203.946167 
	C205.640579,197.293060 208.273773,190.908051 211.014755,184.169586 
z"/>
<path fill="none" opacity="1.000000" stroke="none" 
	d="
M406.628845,206.377258 
	C408.772125,205.927109 410.553284,205.625000 412.534393,205.288971 
	C413.410278,210.436386 413.739288,214.942322 408.198669,217.758911 
	C405.199005,219.283798 402.836517,219.508682 400.975159,216.441620 
	C399.197601,213.512558 399.304413,210.716904 402.319000,208.600357 
	C403.525696,207.753128 404.944489,207.207962 406.628845,206.377258 
z"/>
<path fill="none" opacity="1.000000" stroke="none" 
	d="
M240.658234,279.662689 
	C244.258347,277.830200 247.599869,276.267578 251.740509,274.331268 
	C251.995758,279.528503 254.037476,283.823334 249.128540,286.714142 
	C246.796783,288.087311 244.428467,290.544342 241.655136,287.837524 
	C239.418564,285.654602 238.156387,282.985992 240.658234,279.662689 
z"/>
<path fill="none" opacity="1.000000" stroke="none" 
	d="
M315.229584,288.415009 
	C311.500610,289.801666 309.417389,287.854645 309.017883,285.073639 
	C308.726837,283.047272 309.509674,279.871399 310.975586,278.804962 
	C313.638702,276.867554 317.166443,276.118591 320.461578,274.823212 
	C322.204712,283.662537 321.887543,284.454224 315.229584,288.415009 
z"/>
</svg>