<svg version="1.1" id="Layer_1" xmlns="http://www.w3.org/2000/svg" xmlns:xlink="http://www.w3.org/1999/xlink" x="0px" y="0px"
	 width="100%" viewBox="0 0 500 401" enable-background="new 0 0 500 401" xml:space="preserve">
<path fill="none" opacity="1.000000" stroke="none" 
	d="
M312.000000,402.000000 
	C208.028702,402.000000 104.557396,402.000000 1.043048,402.000000 
	C1.043048,268.399109 1.043048,134.798203 1.043048,1.098643 
	C167.554642,1.098643 334.109344,1.098643 500.832031,1.098643 
	C500.832031,134.666489 500.832031,268.333221 500.832031,402.000000 
	C438.131500,402.000000 375.315765,402.000000 312.000000,402.000000 
M134.500946,42.103439 
	C134.159180,42.309711 134.067795,42.595951 134.080521,43.599827 
	C134.042358,44.034275 134.004196,44.468723 133.503372,45.098106 
	C133.407166,45.390644 133.310974,45.683182 133.067200,46.601562 
	C133.030807,47.028664 132.994431,47.455769 132.334854,48.288563 
	C130.881851,52.100643 129.427277,55.912128 127.976074,59.724892 
	C120.423073,79.568932 112.820091,99.394150 105.334694,119.263657 
	C99.408104,134.995438 93.587875,150.767624 87.800781,166.551361 
	C85.783104,172.054382 84.406250,177.751434 88.474747,182.911423 
	C92.937302,188.571198 100.410248,188.602966 107.979774,183.096405 
	C114.001785,178.715607 118.931007,172.698868 123.872337,166.998367 
	C130.856781,158.940842 136.601624,149.549316 148.628845,146.961426 
	C149.056320,146.987640 149.483780,147.013855 150.220139,147.584213 
	C150.816711,147.659256 151.413284,147.734283 152.658295,148.157043 
	C156.570251,152.460220 157.820007,160.261383 154.255814,164.991516 
	C149.932571,170.729004 145.299545,176.573853 139.676697,180.917358 
	C129.320297,188.917404 118.104134,195.798416 107.317062,203.248276 
	C89.121483,215.814636 70.544357,227.885284 52.943344,241.239456 
	C36.156509,253.975922 22.145851,269.419128 13.387414,289.129761 
	C3.812199,310.678497 3.368464,332.390228 11.040905,354.441315 
	C17.883833,374.108337 31.052784,388.195190 50.736687,394.617676 
	C71.091339,401.258972 91.951439,399.074585 111.892929,392.297363 
	C134.203293,384.714996 151.919815,370.389282 164.961426,350.720703 
	C183.973145,322.048279 191.952652,289.841400 193.859497,255.960907 
	C194.560562,243.504486 194.072708,230.974609 193.933517,218.480408 
	C193.872147,212.973801 193.327759,207.472565 193.002670,201.968887 
	C193.296143,201.901642 193.589615,201.834381 193.883087,201.767136 
	C207.574738,237.918839 221.266388,274.070526 234.958038,310.222229 
	C235.962692,281.572083 235.978760,253.257996 235.915359,224.944077 
	C235.912186,223.525040 235.347321,222.059433 234.830109,220.696686 
	C228.910553,205.099579 222.910965,189.532791 217.008804,173.929123 
	C208.967667,152.670654 201.023712,131.375427 192.980682,110.117653 
	C183.662628,85.489914 174.258224,60.894852 164.941360,36.266663 
	C161.412140,26.937523 158.095947,17.527060 154.484802,8.230513 
	C153.980713,6.932804 152.215286,5.119659 151.254089,5.244310 
	C149.867630,5.424109 148.172485,6.913710 147.515732,8.280165 
	C146.039688,11.351272 145.121506,14.690500 143.509827,18.102249 
	C143.411224,18.392958 143.312607,18.683664 143.068405,19.613920 
	C143.036667,20.050043 143.004929,20.486164 142.428604,21.213226 
	C142.347382,21.799320 142.266159,22.385414 142.041840,23.434362 
	C142.041840,23.434362 141.972595,23.913857 141.506531,24.101398 
	C141.404053,24.393534 141.301590,24.685669 141.044037,25.430996 
	C141.044037,25.430996 140.966385,25.903656 140.344131,26.263897 
	C139.961441,27.846666 139.578766,29.429436 139.038635,31.454195 
	C139.038635,31.454195 138.968338,31.918095 138.512039,32.112400 
	C138.175156,32.317932 138.072281,32.606815 138.038437,33.449760 
	C138.038437,33.449760 137.961884,33.942619 137.501312,34.107922 
	C137.157639,34.312675 137.069199,34.596889 137.092804,35.620712 
	C137.042206,36.068184 136.991608,36.515652 136.388123,37.235085 
	C136.318359,37.826290 136.248596,38.417500 136.019226,39.429443 
	C136.019226,39.429443 135.960785,39.875637 135.499435,40.088203 
	C135.395905,40.384396 135.292374,40.680584 135.036240,41.440037 
	C135.036240,41.440037 134.957977,41.921463 134.500946,42.103439 
M285.954468,395.987915 
	C295.490509,395.991943 305.026855,396.035461 314.562256,395.958679 
	C316.042664,395.946747 317.518646,395.384735 319.930511,394.986023 
	C323.096222,394.980896 326.263489,394.908997 329.427368,394.982239 
	C342.688049,395.289246 355.946869,395.855835 369.207977,395.905823 
	C379.799896,395.945770 390.394104,395.376129 401.378937,395.855621 
	C410.107788,395.903748 418.836853,395.996124 427.565338,395.957153 
	C429.048767,395.950531 430.529663,395.380157 432.945068,394.996796 
	C452.861755,394.996796 472.778442,394.996796 492.792419,394.996796 
	C492.792419,373.028595 492.792419,351.746643 492.792419,330.434113 
	C489.419312,329.446838 488.540894,330.668030 487.876373,333.892792 
	C486.782745,339.200073 485.582916,344.844147 482.835602,349.382324 
	C475.603790,361.328186 463.954346,368.005981 451.331635,373.049866 
	C434.311371,379.850952 416.648163,384.232513 398.421631,386.019135 
	C379.122559,387.910858 359.808533,389.947754 340.451050,390.856567 
	C323.161072,391.668304 305.802948,391.035461 288.474915,391.017242 
	C287.046967,391.015747 285.619202,390.839783 284.002106,390.732269 
	C284.002106,388.506958 283.997253,386.689514 284.002808,384.872040 
	C284.326782,278.805725 284.540527,172.738739 285.148834,66.674042 
	C285.209320,56.121132 287.006805,45.438683 289.231842,35.081402 
	C291.043427,26.648716 294.396790,18.111200 302.817139,13.910946 
	C307.917114,11.366972 313.839905,10.472438 319.688110,8.749922 
	C319.688110,8.074906 319.688110,6.698288 319.688110,5.335137 
	C284.316864,5.335137 249.247589,5.335137 213.915466,5.335137 
	C214.108398,7.094256 214.261810,8.492957 214.367065,9.452684 
	C218.610550,10.187879 222.389847,10.544706 226.000046,11.524597 
	C236.383865,14.343010 240.900574,22.670160 243.915802,31.901449 
	C249.778946,49.851765 249.698792,68.684479 249.758499,87.128769 
	C250.020355,168.040649 249.506866,248.956833 248.844650,329.867950 
	C248.747299,341.762329 247.044128,353.774414 244.777435,365.479034 
	C242.941406,374.959839 239.041290,384.101288 228.823013,387.977417 
	C224.918701,389.458496 220.633606,389.908356 216.617493,391.139526 
	C215.486847,391.486145 214.694626,392.936768 213.747192,393.881012 
	C236.288940,394.980347 257.771912,394.958679 279.254669,395.017395 
	C281.180023,395.022675 283.103912,395.548706 285.954468,395.987915 
z"/>
<path fill="#D48A94" opacity="1.000000" stroke="none" 
	d="
M400.987274,395.077026 
	C390.394104,395.376129 379.799896,395.945770 369.207977,395.905823 
	C355.946869,395.855835 342.688049,395.289246 329.427368,394.982239 
	C326.263489,394.908997 323.096222,394.980896 318.995911,395.016235 
	C311.273041,395.042084 304.483032,394.942291 297.697174,395.068268 
	C293.471008,395.146698 289.251190,395.566376 285.028503,395.832886 
	C283.103912,395.548706 281.180023,395.022675 279.254669,395.017395 
	C257.771912,394.958679 236.288940,394.980347 213.747192,393.881012 
	C214.694626,392.936768 215.486847,391.486145 216.617493,391.139526 
	C220.633606,389.908356 224.918701,389.458496 228.823013,387.977417 
	C239.041290,384.101288 242.941406,374.959839 244.777435,365.479034 
	C247.044128,353.774414 248.747299,341.762329 248.844650,329.867950 
	C249.506866,248.956833 250.020355,168.040649 249.758499,87.128769 
	C249.698792,68.684479 249.778946,49.851765 243.915802,31.901449 
	C240.900574,22.670160 236.383865,14.343010 226.000046,11.524597 
	C222.389847,10.544706 218.610550,10.187879 214.367065,9.452684 
	C214.261810,8.492957 214.108398,7.094256 213.915466,5.335137 
	C249.247589,5.335137 284.316864,5.335137 319.688110,5.335137 
	C319.688110,6.698288 319.688110,8.074906 319.688110,8.749922 
	C313.839905,10.472438 307.917114,11.366972 302.817139,13.910946 
	C294.396790,18.111200 291.043427,26.648716 289.231842,35.081402 
	C287.006805,45.438683 285.209320,56.121132 285.148834,66.674042 
	C284.540527,172.738739 284.326782,278.805725 284.002808,384.872040 
	C283.997253,386.689514 284.002106,388.506958 284.002106,390.732269 
	C285.619202,390.839783 287.046967,391.015747 288.474915,391.017242 
	C305.802948,391.035461 323.161072,391.668304 340.451050,390.856567 
	C359.808533,389.947754 379.122559,387.910858 398.421631,386.019135 
	C416.648163,384.232513 434.311371,379.850952 451.331635,373.049866 
	C463.954346,368.005981 475.603790,361.328186 482.835602,349.382324 
	C485.582916,344.844147 486.782745,339.200073 487.876373,333.892792 
	C488.540894,330.668030 489.419312,329.446838 492.792419,330.434113 
	C492.792419,351.746643 492.792419,373.028595 492.792419,394.996796 
	C472.778442,394.996796 452.861755,394.996796 432.010071,395.013214 
	C421.045776,395.045441 411.016541,395.061249 400.987274,395.077026 
z"/>
<path fill="#AD6A74" opacity="1.000000" stroke="none" 
	d="
M138.968338,31.918095 
	C138.968338,31.918095 139.038635,31.454195 139.396957,31.123432 
	C140.158981,29.162998 140.562683,27.533327 140.966385,25.903656 
	C140.966385,25.903656 141.044037,25.430996 141.272186,25.043343 
	C141.690750,24.429415 141.848175,24.182138 141.972595,23.913857 
	C141.972595,23.913857 142.041840,23.434362 142.270798,22.973038 
	C142.657562,21.981903 142.815384,21.452095 142.973190,20.922287 
	C143.004929,20.486164 143.036667,20.050043 143.289246,19.134220 
	C143.697128,18.429991 143.852509,18.185345 143.976227,17.920586 
	C145.121506,14.690500 146.039688,11.351272 147.515732,8.280165 
	C148.172485,6.913710 149.867630,5.424109 151.254089,5.244310 
	C152.215286,5.119659 153.980713,6.932804 154.484802,8.230513 
	C158.095947,17.527060 161.412140,26.937523 164.941360,36.266663 
	C174.258224,60.894852 183.662628,85.489914 192.980682,110.117653 
	C201.023712,131.375427 208.967667,152.670654 217.008804,173.929123 
	C222.910965,189.532791 228.910553,205.099579 234.830109,220.696686 
	C235.347321,222.059433 235.912186,223.525040 235.915359,224.944077 
	C235.978760,253.257996 235.962692,281.572083 234.958038,310.222229 
	C221.266388,274.070526 207.574738,237.918839 193.883087,201.767136 
	C193.589615,201.834381 193.296143,201.901642 193.002670,201.968887 
	C193.327759,207.472565 193.872147,212.973801 193.933517,218.480408 
	C194.072708,230.974609 194.560562,243.504486 193.859497,255.960907 
	C191.952652,289.841400 183.973145,322.048279 164.961426,350.720703 
	C151.919815,370.389282 134.203293,384.714996 111.892929,392.297363 
	C91.951439,399.074585 71.091339,401.258972 50.736687,394.617676 
	C31.052784,388.195190 17.883833,374.108337 11.040905,354.441315 
	C3.368464,332.390228 3.812199,310.678497 13.387414,289.129761 
	C22.145851,269.419128 36.156509,253.975922 52.943344,241.239456 
	C70.544357,227.885284 89.121483,215.814636 107.317062,203.248276 
	C118.104134,195.798416 129.320297,188.917404 139.676697,180.917358 
	C145.299545,176.573853 149.932571,170.729004 154.255814,164.991516 
	C157.820007,160.261383 156.570251,152.460220 152.258759,147.774170 
	C151.209885,147.274231 150.560577,147.157150 149.911255,147.040054 
	C149.483780,147.013855 149.056320,146.987640 148.315048,146.527420 
	C148.001907,145.118027 148.002563,144.142639 148.376083,143.099915 
	C149.503815,143.070007 150.258667,143.107452 151.291809,143.315491 
	C152.418640,143.643219 153.267212,143.800400 154.343994,143.991547 
	C154.572205,144.025513 155.008377,144.176224 155.172333,144.330536 
	C155.566589,144.680191 155.818222,144.842499 156.318024,145.044983 
	C156.832489,145.304047 156.994934,145.567169 157.057129,146.249512 
	C157.759003,147.380798 158.435928,148.170135 159.429611,149.167252 
	C160.355896,152.526489 161.598602,155.706390 161.458618,158.824219 
	C161.002182,168.990524 155.791275,177.028030 149.138229,184.343521 
	C136.232941,198.533752 119.569061,207.840851 104.177773,218.734741 
	C87.823326,230.310394 71.995560,242.361160 59.427120,258.098938 
	C40.958435,281.224884 34.521587,307.472198 41.118759,336.356689 
	C43.777390,347.997040 49.625549,358.241486 59.142132,366.180298 
	C71.057396,376.120087 84.760704,379.456512 99.926300,379.082916 
	C117.705772,378.644958 132.599396,371.807190 145.562347,360.009460 
	C158.350098,348.371124 167.161240,334.149048 174.014832,318.384094 
	C184.447525,294.386383 188.773926,269.160614 189.888229,243.293976 
	C190.293579,233.884354 189.766403,224.377747 188.906479,214.984787 
	C187.829956,203.225891 186.956680,191.299591 184.185547,179.884979 
	C181.194061,167.562576 176.342926,155.661652 171.892303,143.730072 
	C163.953705,122.447685 155.664871,101.296196 147.609512,80.056976 
	C144.601547,72.126015 141.837097,64.102684 138.857819,55.920509 
	C138.595428,55.461075 138.408310,55.225246 138.120712,54.694057 
	C137.304031,53.581223 136.559296,52.786400 135.464142,51.938175 
	C134.395172,50.550804 133.676620,49.216839 132.958054,47.882870 
	C132.994431,47.455769 133.030807,47.028664 133.288803,46.126225 
	C133.696487,45.422489 133.848358,45.173252 133.966019,44.903172 
	C134.004196,44.468723 134.042358,44.034275 134.301300,43.126583 
	C134.704575,42.431549 134.849884,42.187592 134.957977,41.921463 
	C134.957977,41.921463 135.036240,41.440037 135.263718,41.041229 
	C135.682037,40.407833 135.838562,40.152237 135.960785,39.875637 
	C135.960785,39.875637 136.019226,39.429443 136.326447,39.137505 
	C136.736115,38.218086 136.838562,37.590603 136.941010,36.963123 
	C136.991608,36.515652 137.042206,36.068184 137.310608,35.139847 
	C137.709564,34.442371 137.854050,34.203583 137.961884,33.942619 
	C137.961884,33.942619 138.038437,33.449760 138.271378,33.054642 
	C138.693665,32.434082 138.848328,32.186939 138.968338,31.918095 
z"/>
<path fill="#A76B74" opacity="1.000000" stroke="none" 
	d="
M132.646454,48.085716 
	C133.676620,49.216839 134.395172,50.550804 135.526581,52.315369 
	C126.120949,78.852501 116.223473,104.929703 106.516258,131.077545 
	C101.415901,144.816086 96.471222,158.620117 91.906242,172.542130 
	C91.150360,174.847397 91.820259,179.178986 93.425301,180.307968 
	C95.465744,181.743195 99.495728,181.804398 102.031265,180.819290 
	C111.060303,177.311356 116.146744,169.148849 121.885834,162.032639 
	C127.511047,155.057648 133.348038,148.492661 141.400406,144.379761 
	C143.309677,143.404556 145.787109,143.541748 148.003204,143.167252 
	C148.002563,144.142639 148.001907,145.118027 148.001190,146.459167 
	C136.601624,149.549316 130.856781,158.940842 123.872337,166.998367 
	C118.931007,172.698868 114.001785,178.715607 107.979774,183.096405 
	C100.410248,188.602966 92.937302,188.571198 88.474747,182.911423 
	C84.406250,177.751434 85.783104,172.054382 87.800781,166.551361 
	C93.587875,150.767624 99.408104,134.995438 105.334694,119.263657 
	C112.820091,99.394150 120.423073,79.568932 127.976074,59.724892 
	C129.427277,55.912128 130.881851,52.100643 132.646454,48.085716 
z"/>
<path fill="none" opacity="1.000000" stroke="none" 
	d="
M285.491486,395.910400 
	C289.251190,395.566376 293.471008,395.146698 297.697174,395.068268 
	C304.483032,394.942291 311.273041,395.042084 318.528992,395.061768 
	C317.518646,395.384735 316.042664,395.946747 314.562256,395.958679 
	C305.026855,396.035461 295.490509,395.991943 285.491486,395.910400 
z"/>
<path fill="none" opacity="1.000000" stroke="none" 
	d="
M401.183105,395.466339 
	C411.016541,395.061249 421.045776,395.045441 431.543396,395.049927 
	C430.529663,395.380157 429.048767,395.950531 427.565338,395.957153 
	C418.836853,395.996124 410.107788,395.903748 401.183105,395.466339 
z"/>
<path fill="#A76B74" opacity="1.000000" stroke="none" 
	d="
M140.655258,26.083776 
	C140.562683,27.533327 140.158981,29.162998 139.475677,30.902437 
	C139.578766,29.429436 139.961441,27.846666 140.655258,26.083776 
z"/>
<path fill="#A76B74" opacity="1.000000" stroke="none" 
	d="
M136.664566,37.099106 
	C136.838562,37.590603 136.736115,38.218086 136.406250,38.927135 
	C136.248596,38.417500 136.318359,37.826290 136.664566,37.099106 
z"/>
<path fill="#A76B74" opacity="1.000000" stroke="none" 
	d="
M150.065704,147.312134 
	C150.560577,147.157150 151.209885,147.274231 151.934540,147.600311 
	C151.413284,147.734283 150.816711,147.659256 150.065704,147.312134 
z"/>
<path fill="#A76B74" opacity="1.000000" stroke="none" 
	d="
M142.700897,21.067757 
	C142.815384,21.452095 142.657562,21.981903 142.342346,22.741610 
	C142.266159,22.385414 142.347382,21.799320 142.700897,21.067757 
z"/>
<path fill="#A76B74" opacity="1.000000" stroke="none" 
	d="
M143.743027,18.011417 
	C143.852509,18.185345 143.697128,18.429991 143.362045,18.814445 
	C143.312607,18.683664 143.411224,18.392958 143.743027,18.011417 
z"/>
<path fill="#A76B74" opacity="1.000000" stroke="none" 
	d="
M141.739563,24.007627 
	C141.848175,24.182138 141.690750,24.429415 141.349731,24.816746 
	C141.301590,24.685669 141.404053,24.393534 141.739563,24.007627 
z"/>
<path fill="#A76B74" opacity="1.000000" stroke="none" 
	d="
M133.734695,45.000641 
	C133.848358,45.173252 133.696487,45.422489 133.362595,45.813301 
	C133.310974,45.683182 133.407166,45.390644 133.734695,45.000641 
z"/>
<path fill="#A76B74" opacity="1.000000" stroke="none" 
	d="
M134.729462,42.012451 
	C134.849884,42.187592 134.704575,42.431549 134.374451,42.807751 
	C134.067795,42.595951 134.159180,42.309711 134.729462,42.012451 
z"/>
<path fill="#A76B74" opacity="1.000000" stroke="none" 
	d="
M135.730103,39.981918 
	C135.838562,40.152237 135.682037,40.407833 135.340027,40.809601 
	C135.292374,40.680584 135.395905,40.384396 135.730103,39.981918 
z"/>
<path fill="#A76B74" opacity="1.000000" stroke="none" 
	d="
M137.731598,34.025269 
	C137.854050,34.203583 137.709564,34.442371 137.382217,34.809769 
	C137.069199,34.596889 137.157639,34.312675 137.731598,34.025269 
z"/>
<path fill="#A76B74" opacity="1.000000" stroke="none" 
	d="
M138.740189,32.015247 
	C138.848328,32.186939 138.693665,32.434082 138.353867,32.819290 
	C138.072281,32.606815 138.175156,32.317932 138.740189,32.015247 
z"/>
<path fill="none" opacity="1.000000" stroke="none" 
	d="
M148.376068,143.099915 
	C145.787109,143.541748 143.309677,143.404556 141.400406,144.379761 
	C133.348038,148.492661 127.511047,155.057648 121.885834,162.032639 
	C116.146744,169.148849 111.060303,177.311356 102.031265,180.819290 
	C99.495728,181.804398 95.465744,181.743195 93.425301,180.307968 
	C91.820259,179.178986 91.150360,174.847397 91.906242,172.542130 
	C96.471222,158.620117 101.415901,144.816086 106.516258,131.077545 
	C116.223473,104.929703 126.120949,78.852501 135.876984,52.368774 
	C136.559296,52.786400 137.304031,53.581223 138.099274,54.951214 
	C138.420410,55.724747 138.691010,55.923103 138.961624,56.121464 
	C141.837097,64.102684 144.601547,72.126015 147.609512,80.056976 
	C155.664871,101.296196 163.953705,122.447685 171.892303,143.730072 
	C176.342926,155.661652 181.194061,167.562576 184.185547,179.884979 
	C186.956680,191.299591 187.829956,203.225891 188.906479,214.984787 
	C189.766403,224.377747 190.293579,233.884354 189.888229,243.293976 
	C188.773926,269.160614 184.447525,294.386383 174.014832,318.384094 
	C167.161240,334.149048 158.350098,348.371124 145.562347,360.009460 
	C132.599396,371.807190 117.705772,378.644958 99.926300,379.082916 
	C84.760704,379.456512 71.057396,376.120087 59.142132,366.180298 
	C49.625549,358.241486 43.777390,347.997040 41.118759,336.356689 
	C34.521587,307.472198 40.958435,281.224884 59.427120,258.098938 
	C71.995560,242.361160 87.823326,230.310394 104.177773,218.734741 
	C119.569061,207.840851 136.232941,198.533752 149.138229,184.343521 
	C155.791275,177.028030 161.002182,168.990524 161.458618,158.824219 
	C161.598602,155.706390 160.355896,152.526489 159.374191,148.842850 
	C158.345398,147.509644 157.688797,146.708603 157.032196,145.907562 
	C156.994934,145.567169 156.832489,145.304047 156.224716,144.805984 
	C155.605835,144.387924 155.307098,144.282074 155.008377,144.176224 
	C155.008377,144.176224 154.572205,144.025513 154.167801,143.685516 
	C152.846771,143.278641 151.930161,143.211777 151.013535,143.144913 
	C150.258667,143.107452 149.503815,143.070007 148.376068,143.099915 
z"/>
<path fill="#A76B74" opacity="1.000000" stroke="none" 
	d="
M157.057129,146.249512 
	C157.688797,146.708603 158.345398,147.509644 159.057434,148.635086 
	C158.435928,148.170135 157.759003,147.380798 157.057129,146.249512 
z"/>
<path fill="#A76B74" opacity="1.000000" stroke="none" 
	d="
M151.291809,143.315491 
	C151.930161,143.211777 152.846771,143.278641 153.939575,143.651550 
	C153.267212,143.800400 152.418640,143.643219 151.291809,143.315491 
z"/>
<path fill="#A76B74" opacity="1.000000" stroke="none" 
	d="
M155.172333,144.330536 
	C155.307098,144.282074 155.605835,144.387924 155.997864,144.732758 
	C155.818222,144.842499 155.566589,144.680191 155.172333,144.330536 
z"/>
<path fill="#A76B74" opacity="1.000000" stroke="none" 
	d="
M138.857819,55.920509 
	C138.691010,55.923103 138.420410,55.724747 138.171234,55.269230 
	C138.408310,55.225246 138.595428,55.461075 138.857819,55.920509 
z"/>
</svg>