<svg role="img" viewBox="0 0 144 144" xmlns="http://www.w3.org/2000/svg" id="Milvus--Streamline-Simple-Icons" height="144" width="144">
  <desc>
    Milvus Streamline Icon: https://streamlinehq.com
  </desc>
  <title>Milvus</title>
  <path d="M93.216 71.982a24.03 24.03 0 0 1 -24.089999999999996 24.107999999999997c-14.16 -0.03 -24.299999999999997 -11.724 -24.06 -24.48a24.078 24.078 0 0 1 48.150000000000006 0.366zm50.77799999999999 -0.24a4.938 4.938 0 0 1 -1.5 3.6959999999999997q-6.732000000000001 6.767999999999999 -13.488000000000001 13.5c-0.492 0.498 -0.99 0.6000000000000001 -1.5 0.324 -0.546 -0.28800000000000003 -0.744 -0.726 -0.5880000000000001 -1.452a76.584 76.584 0 0 0 1.5 -9.756 72.918 72.918 0 0 0 0.168 -8.94 69.36 69.36 0 0 0 -1.62 -12.684 1.53 1.53 0 0 1 0.10200000000000001 -1.278 1.1640000000000001 1.1640000000000001 0 0 1 1.6380000000000001 -0.312 3.768 3.768 0 0 1 0.516 0.44999999999999996l13.044 13.044c1.026 1.02 1.7399999999999998 2.1959999999999997 1.734 3.4019999999999997zM67.35600000000001 120c-11.34 -0.012 -20.928 -3.3899999999999997 -29.556 -9.666a49.902 49.902 0 0 1 -5.712 -4.896q-6.75 -6.672000000000001 -13.518 -13.326l-11.586 -11.394c-1.746 -1.71 -3.4979999999999998 -3.42 -5.2379999999999995 -5.1419999999999995 -2.358 -2.34 -2.322 -4.9799999999999995 0.07200000000000001 -7.3020000000000005 1.7759999999999998 -1.7279999999999998 3.54 -3.4739999999999998 5.3100000000000005 -5.208q8.598 -8.459999999999999 17.201999999999998 -16.908c3.192 -3.132 6.342 -6.305999999999999 9.624 -9.33a47.976 47.976 0 0 1 22.716 -11.7A46.008 46.008 0 0 1 66.81 24c11.34 0.09 21.672 3.2760000000000002 30.678000000000004 10.338000000000001a47.922 47.922 0 0 1 13.692 16.62 45.402 45.402 0 0 1 4.5600000000000005 15.336c1.53 14.424 -2.484 27.107999999999997 -12.276 37.872a46.632000000000005 46.632000000000005 0 0 1 -23.562 14.196000000000002 53.97 53.97 0 0 1 -12.546000000000001 1.6440000000000001zm2.184 -12.822a34.914 34.914 0 0 0 3.63 -0.21599999999999997 32.099999999999994 32.099999999999994 0 0 0 2.2800000000000002 -0.30000000000000004c9.149999999999999 -1.6800000000000002 16.56 -6.305999999999999 22.224 -13.578 5.5200000000000005 -7.068 7.68 -15.251999999999999 7.007999999999999 -24.168a33.756 33.756 0 0 0 -3.786 -13.008000000000001c-3.762 -7.2780000000000005 -9.576 -12.402000000000001 -16.902 -15.876 -6.5760000000000005 -3.114 -13.488000000000001 -3.894 -20.658 -2.7840000000000003A34.884 34.884 0 0 0 43.980000000000004 46.8c-5.148 4.9799999999999995 -10.242 10.014 -15.36 15.024000000000001 -2.556 2.514 -5.1 5.045999999999999 -7.68 7.542 -1.6440000000000001 1.596 -1.7159999999999997 3.5279999999999996 -0.078 5.1419999999999995q4.824 4.758 9.66 9.498c4.332 4.254 8.64 8.52 12.99 12.756 7.103999999999999 6.918 15.624 10.422 26.034000000000002 10.428z" fill="#4cbdf1" stroke-width="6"></path>
</svg>