<svg xmlns="http://www.w3.org/2000/svg" fill="none" viewBox="0 0 144 144" id="Numpy--Streamline-Svg-Logos" height="144" width="144">
  <desc>
    Numpy Streamline Icon: https://streamlinehq.com
  </desc>
  <path fill="#4dabcf" d="m104.74845 97.50195 0.030600000000000002 31.187549999999998L77.10375 142.5V111.32594999999999l27.6447 -13.823999999999998Zm33.2145 -16.668599999999998v31.296599999999998L114.3585 123.91005000000001l-0.01695 -31.153499999999998 23.6214 -11.923200000000001ZM104.70750000000001 55.75725l0.03075 30.860549999999996 -27.634499999999996 13.732050000000001V69.4791l27.603749999999998 -13.72185Zm33.25545 -16.5324v30.666449999999998L114.33465000000001 81.90299999999999l-0.020399999999999998 -30.9219 23.6487 -11.756250000000001Zm-65.0664 -3.62805 24.7014 12.468300000000001L71.97 60.935249999999996 47.73525 48.7635l25.1613 -13.166699999999999Zm-34.35915 -17.343 23.5602 11.89245 -25.2192 13.163249999999998 -24.197249999999997 -12.151500000000002 25.856250000000003 -12.9042Zm67.3488 0.18045 25.375950000000003 12.723749999999999 -22.69485 11.39865 -24.75255 -12.485400000000002 22.07145 -11.637ZM72.11985 1.5l22.84485 11.453054999999999L73.06004999999999 24.647999999999996 49.520399999999995 12.77592 72.11985 1.5Z" stroke-width="1.5"></path>
  <path fill="#4d77cf" d="m67.3326 69.4794 -18.64095 -9.37155v40.5081S25.8945 52.109100000000005 23.7825 47.752050000000004c-0.27255 -0.5620499999999999 -1.3933499999999999 -1.1787 -1.6795499999999999 -1.3285500000000001 -4.087949999999999 -2.1462000000000003 -16.0656 -8.2134 -16.0656 -8.2134v71.5662l16.56975 8.857199999999999V81.22545s22.555349999999997 43.3425 22.7835 43.8159c0.2283 0.47354999999999997 2.4937500000000004 5.0418 4.91235 6.64635 3.2227499999999996 2.13255 17.033099999999997 10.437899999999999 17.033099999999997 10.437899999999999l-0.00345 -72.6462Z" stroke-width="1.5"></path>
</svg>