<svg xmlns="http://www.w3.org/2000/svg" fill="none" viewBox="0 0 144 144" id="Pytorch-Icon--Streamline-Svg-Logos" height="144" width="144">
  <desc>
    Pytorch Icon Streamline Icon: https://streamlinehq.com
  </desc>
  <path fill="#ee4c2c" d="M71.92035 1.5v20.5293l-31.5432 31.541999999999998c-16.508399999999998 16.74345 -16.50675 43.6773 0.0050999999999999995 60.72435l0.50535 0.5136c16.86915 17.1873 44.5599 17.1873 61.7472 0 17.01555 -16.7004 17.185650000000003 -44.00715 0.51045 -61.22835l-0.51045 -0.51885 10.50345 -10.5033c22.9164 22.9164 22.9164 59.67825 0 82.75395 -22.4391 22.9164 -59.3601 22.9164 -82.27665 0 -22.687244999999997 -22.687350000000002 -22.914105 -59.10045 -0.68055 -82.0623l0.68055 -0.69165L71.92035 1.5Zm20.68845 23.2347c4.2189000000000005 0 7.6389 3.42015 7.6389 7.6389s-3.42 7.63875 -7.6389 7.63875c-4.21875 0 -7.63875 -3.42 -7.63875 -7.63875 0 -4.21875 3.42 -7.6389 7.63875 -7.6389Z" stroke-width="1.5"></path>
</svg>