<svg xmlns="http://www.w3.org/2000/svg" fill="none" viewBox="0 0 144 144" id="Tensorflow--Streamline-Svg-Logos" height="144" width="144">
  <desc>
    Tensorflow Streamline Icon: https://streamlinehq.com
  </desc>
  <path fill="#e55b2d" d="M81.39255 23.19v21.6933L118.9635 66.5766V44.8833L81.39255 23.19ZM6.248295000000001 44.8833v21.6933L25.0338 77.42099999999999V55.72995L6.248295000000001 44.8833Zm56.356455000000004 10.84665 -18.7854 10.84665v65.07554999999999l18.7854 10.84665V99.11445l18.7878 10.84665V88.2678L62.604749999999996 77.42099999999999V55.72995Z" stroke-width="1.5"></path>
  <path fill="#ed8e24" d="M81.39224999999999 23.19 25.0335 55.72995V77.42099999999999l37.570949999999996 -21.691049999999997V77.42099999999999l18.7878 -10.8444V23.19Zm56.35875 10.84665 -18.7878 10.84665v21.6933l18.7878 -10.84665V34.036649999999995ZM100.17765 77.42099999999999l-18.7854 10.8468v21.6933l18.7854 -10.84665V77.42099999999999ZM81.39224999999999 109.9611l-18.7878 -10.84665v43.38435l18.7878 -10.84665V109.9611Z" stroke-width="1.5"></path>
  <path fill="#f8bf3c" d="M81.39255 1.5 6.248295000000001 44.884499999999996l18.785505 10.84665 56.35875 -32.5401L118.9635 44.884499999999996l18.7878 -10.84665L81.39255 1.5Zm0 65.0778 -18.7878 10.8444 18.7878 10.84665 18.78555 -10.84665 -18.78555 -10.8444Z" stroke-width="1.5"></path>
</svg>